<?xml version="1.0" encoding="utf-8"?>
<!-- Generator: Adobe Illustrator 23.0.1, SVG Export Plug-In . SVG Version: 6.00 Build 0)  -->
<svg version="1.1" id="Layer_1" xmlns="http://www.w3.org/2000/svg" xmlns:xlink="http://www.w3.org/1999/xlink" x="0px" y="0px"
	 viewBox="0 0 250 250" style="enable-background:new 0 0 250 250;" xml:space="preserve">
<style type="text/css">
	.st0{fill:#CCCCCC;}
</style>
<path class="st0" d="M57.8,190.1c1.5,0,3.1-0.5,4.3-1.3c1.3-0.9,2.3-2.1,2.9-3.5c0.6-1.4,0.7-3,0.4-4.5c-0.3-1.5-1-2.9-2.1-4
	c-1.1-1.1-2.5-1.8-4-2.1c-1.5-0.3-3.1-0.1-4.5,0.4c-1.4,0.6-2.6,1.6-3.5,2.9c-0.9,1.3-1.3,2.8-1.3,4.3c0,2.1,0.8,4.1,2.3,5.5
	C53.8,189.2,55.8,190.1,57.8,190.1z"/>
<path class="st0" d="M57.8,148.1c-1.8,0-3.5,0.7-4.8,2c-1.3,1.3-2,3-2,4.8s0.7,3.5,2,4.8c1.3,1.3,3,2,4.8,2c5.5,0,10.7,2.2,14.6,6
	c3.9,3.9,6,9.1,6,14.6c0,1.8,0.7,3.5,2,4.8s3,2,4.8,2s3.5-0.7,4.8-2c1.3-1.3,2-3,2-4.8c0-9-3.6-17.7-10-24.1
	C75.5,151.8,66.9,148.2,57.8,148.1z"/>
<path class="st0" d="M112.5,189c1.8,0,3.5-0.7,4.8-2c1.3-1.3,2-3,2-4.8c0-16.3-6.5-31.9-18-43.4c-11.5-11.5-27.1-18-43.4-18
	c-0.9,0-1.8,0.2-2.6,0.5s-1.6,0.8-2.2,1.5c-0.6,0.6-1.1,1.4-1.5,2.2c-0.3,0.8-0.5,1.7-0.5,2.6s0.2,1.8,0.5,2.6
	c0.3,0.8,0.8,1.6,1.5,2.2c0.6,0.6,1.4,1.1,2.2,1.5c0.8,0.3,1.7,0.5,2.6,0.5c12.7,0,24.9,5.1,33.9,14.1c9,9,14,21.2,14.1,33.9
	c0,1.8,0.7,3.5,2,4.8C109,188.3,110.7,189,112.5,189z"/>
<path class="st0" d="M205.9,80c0-3.3-1.3-6.4-3.6-8.7c-2.3-2.3-5.4-3.6-8.7-3.6H63.3c-3.2,0-6.4,1.3-8.7,3.6
	c-2.3,2.3-3.6,5.4-3.6,8.7v21.1c0,1.8,0.7,3.5,2,4.8c1.3,1.3,3,2,4.8,2s3.5-0.7,4.8-2c1.3-1.3,2-3,2-4.8V81.3h127.8v94.2h-54.3
	c-1.8,0-3.5,0.7-4.8,2c-1.3,1.3-2,3-2,4.8s0.7,3.5,2,4.8c1.3,1.3,3,2,4.8,2h55.5c3.2,0,6.4-1.3,8.7-3.6c2.3-2.3,3.6-5.4,3.6-8.7V80z
	"/>
</svg>
