<?xml version="1.0" encoding="utf-8"?>
<!-- Generator: Adobe Illustrator 23.0.1, SVG Export Plug-In . SVG Version: 6.00 Build 0)  -->
<svg version="1.1" id="Layer_1" xmlns="http://www.w3.org/2000/svg" xmlns:xlink="http://www.w3.org/1999/xlink" x="0px" y="0px"
	 viewBox="0 0 250 250" style="enable-background:new 0 0 250 250;" xml:space="preserve">
<style type="text/css">
	.st0{fill:#FFFFFF;}
</style>
<path class="st0" d="M52.2,10.8h49.2c3.1,0,5.5,2.5,5.5,5.5v221.1c0,3.1-2.5,5.5-5.5,5.5H52.2c-3.1,0-5.5-2.5-5.5-5.5V16.3
	C46.7,13.3,49.2,10.8,52.2,10.8z"/>
<path class="st0" d="M155,10.8h49.3c3,0,5.5,2.5,5.5,5.5v221.1c0,3.1-2.5,5.5-5.5,5.5H155c-3.1,0-5.5-2.5-5.5-5.5V16.3
	C149.5,13.3,151.9,10.8,155,10.8z"/>
</svg>
