<?xml version="1.0" encoding="utf-8"?>
<!-- Generator: Adobe Illustrator 23.0.1, SVG Export Plug-In . SVG Version: 6.00 Build 0)  -->
<svg version="1.1" id="Layer_1" xmlns="http://www.w3.org/2000/svg" xmlns:xlink="http://www.w3.org/1999/xlink" x="0px" y="0px"
	 viewBox="0 0 250 250" style="enable-background:new 0 0 250 250;" xml:space="preserve">
<style type="text/css">
	.st0{fill:#FFFFFF;}
</style>
<path class="st0" d="M235,125.4c-4.5-0.3-8.4,3.1-8.8,7.6c-4.2,54.4-51.7,95.2-106.2,91c-54.4-4.2-95.2-51.7-91-106.2
	c4-51.5,46.9-91.3,98.6-91.3c23.4-0.1,46,8.2,63.8,23.4l-11.9,12c-3.2,3.2-3.2,8.4,0,11.7c1.5,1.5,3.6,2.4,5.8,2.4h33
	c4.6,0,8.2-3.7,8.2-8.2v-33c0-4.6-3.7-8.2-8.2-8.2c-2.2,0-4.3,0.9-5.8,2.4l-9.4,9.4C182.2,20,155.4,10,127.7,10
	C64,10,12.3,61.6,12.2,125.3s51.5,115.4,115.3,115.4c60.3,0.1,110.5-46.4,115.1-106.5C242.9,129.7,239.5,125.7,235,125.4
	C235,125.4,235,125.4,235,125.4z"/>
</svg>
