<?xml version="1.0" encoding="utf-8"?>
<!-- Generator: Adobe Illustrator 23.0.1, SVG Export Plug-In . SVG Version: 6.00 Build 0)  -->
<svg version="1.1" id="Layer_1" xmlns="http://www.w3.org/2000/svg" xmlns:xlink="http://www.w3.org/1999/xlink" x="0px" y="0px"
	 viewBox="0 0 250 250" style="enable-background:new 0 0 250 250;" xml:space="preserve">
<style type="text/css">
	.st0{fill:#FFFFFF;}
</style>
<g transform="translate(0,-952.36218)">
	<path class="st0" d="M107.3,954.2c-29.2,0-53,23.8-53,53c0,11.5,3.4,23.8,9.9,32.8c1.9,2.6,5.6,3.2,8.2,1.3s3.2-5.6,1.3-8.2
		c0,0,0,0,0,0c-4.6-6.4-7.7-17-7.7-25.9c0-22.8,18.4-41.2,41.2-41.2s41.2,18.4,41.2,41.2c0,9-3.1,19.6-7.7,25.9
		c-1.9,2.6-1.3,6.3,1.3,8.2c2.6,1.9,6.3,1.3,8.2-1.3c6.5-9.1,9.9-21.3,9.9-32.8C160.3,978,136.5,954.2,107.3,954.2z M107.3,989.6
		c-9.8,0-17.7,7.9-17.7,17.7v106l-11.8-23.5c-9.6-17.9-19.1-16-26.5-11.8c-8.5,5.7-11.7,11.5-5.9,26.5
		c13.4,32.8,33.9,71.9,55.9,97.1h79.5c27.9-20.7,50.4-119.1,11.8-123.6c-3.5,0-9.2,0.6-11.8,2.9c0-11.8-10.3-14.8-14.7-14.7
		c-5.1,0.1-8.8,2.9-11.8,8.8c0-11.8-9.6-14.7-14.7-14.7c-5.6,0-12.2,3.5-14.7,8.8v-61.8C125,997.4,117.1,989.6,107.3,989.6z"/>
</g>
</svg>
