<?xml version="1.0" encoding="utf-8"?>
<!-- Generator: Adobe Illustrator 23.0.1, SVG Export Plug-In . SVG Version: 6.00 Build 0)  -->
<svg version="1.1" id="Layer_1" xmlns="http://www.w3.org/2000/svg" xmlns:xlink="http://www.w3.org/1999/xlink" x="0px" y="0px"
	 viewBox="0 0 250 250" style="enable-background:new 0 0 250 250;" xml:space="preserve">
<style type="text/css">
	.st0{fill-rule:evenodd;clip-rule:evenodd;fill:#FFFFFF;}
</style>
<g transform="matrix(0, 1, -1, 0, 100, -0.000002)">
	<g>
		<path class="st0" d="M125.7-137.2c-60.5,0-109.5,49-109.5,109.5s49,109.5,109.5,109.5s109.5-49,109.5-109.5
			S186.1-137.2,125.7-137.2z M135-111.7c0-5.2,4.2-8.8,9.3-8c0,0-3-0.6,0.1,0c42.9,8.7,75.1,46.5,75.1,92c0,51.8-42,93.8-93.8,93.8
			s-93.8-42-93.8-93.8c0-45.4,32.2-83.2,75-91.9c3.1-0.6,0.2,0,0.2,0c5.1-0.8,9.3,2.8,9.3,8v91.8c0,3.5-2,4.3-4.4,1.8l-17-17.1
			c-8.8-8.8-22.1,4.4-13.2,13.3l37.6,38.3c3.6,3.7,9.5,3.7,13.1,0l37.3-38.2c8.8-8.8-4.4-22.1-13.2-13.3l-17,17.1
			c-2.4,2.5-4.4,1.6-4.4-1.8V-111.7z"/>
	</g>
</g>
</svg>
