<?xml version="1.0" encoding="utf-8"?>
<!-- Generator: Adobe Illustrator 23.0.1, SVG Export Plug-In . SVG Version: 6.00 Build 0)  -->
<svg version="1.1" id="Layer_1" xmlns="http://www.w3.org/2000/svg" xmlns:xlink="http://www.w3.org/1999/xlink" x="0px" y="0px"
	 viewBox="0 0 250 250" style="enable-background:new 0 0 250 250;" xml:space="preserve">
<style type="text/css">
	.st0{fill:#FFFFFF;}
</style>
<path class="st0" d="M26,124.5l98.3-98.3c1.4-1.4,3.2-1.8,5-0.9c1.6,0.7,2.7,2.3,2.7,4.1v87.3l90.5-90.5c1.4-1.4,3.2-1.8,5-0.9
	c1.6,0.7,2.7,2.3,2.7,4.1V226c0,1.8-1.1,3.4-2.7,4.1c-0.7,0.5-1.1,0.5-1.8,0.5c-1.1,0-2.3-0.5-3.2-1.4l-90.5-90.5V226
	c0,1.8-1.1,3.4-2.7,4.1c-0.7,0.5-1.1,0.5-1.8,0.5c-1.1,0-2.3-0.5-3.2-1.4L26,130.9C24.2,129.1,24.2,126.3,26,124.5z"/>
</svg>
