<?xml version="1.0" encoding="utf-8"?>
<!-- Generator: Adobe Illustrator 23.0.1, SVG Export Plug-In . SVG Version: 6.00 Build 0)  -->
<svg version="1.1" id="Layer_1" xmlns="http://www.w3.org/2000/svg" xmlns:xlink="http://www.w3.org/1999/xlink" x="0px" y="0px"
	 viewBox="0 0 250 250" style="enable-background:new 0 0 250 250;" xml:space="preserve">
<style type="text/css">
	.st0{fill:#FFFFFF;}
</style>
<path class="st0" d="M231,130.9l-98.3,98.3c-0.9,0.9-2.1,1.4-3.2,1.4c-0.7,0-1.1,0-1.8-0.5c-1.6-0.7-2.7-2.3-2.7-4.1v-87.3
	l-90.5,90.5c-0.9,0.9-2.1,1.4-3.2,1.4c-0.7,0-1.1,0-1.8-0.5c-1.6-0.7-2.7-2.3-2.7-4.1V29.4c0-1.8,1.1-3.4,2.7-4.1
	c1.8-0.9,3.7-0.5,5,0.9l90.5,90.5V29.4c0-1.8,1.1-3.4,2.7-4.1c1.8-0.9,3.7-0.5,5,0.9l98.3,98.3C232.8,126.3,232.8,129.1,231,130.9z"
	/>
</svg>
