<?xml version="1.0" encoding="utf-8"?>
<!-- Generator: Adobe Illustrator 23.0.1, SVG Export Plug-In . SVG Version: 6.00 Build 0)  -->
<svg version="1.1" id="Layer_1" xmlns="http://www.w3.org/2000/svg" xmlns:xlink="http://www.w3.org/1999/xlink" x="0px" y="0px"
	 viewBox="0 0 250 250" style="enable-background:new 0 0 250 250;" xml:space="preserve">
<style type="text/css">
	.st0{fill:#FFFFFF;}
</style>
<g>
	<path class="st0" d="M223.1,233.3H28.8c-13.4,0-24.3-10.9-24.3-24.3c0-13.4,10.9-24.3,24.3-24.3h194.2c13.4,0,24.3,10.9,24.3,24.3
		C247.3,222.5,236.5,233.3,223.1,233.3z M28.8,201c-4.5,0-8.1,3.6-8.1,8.1s3.6,8.1,8.1,8.1h194.2c4.5,0,8.1-3.6,8.1-8.1
		s-3.6-8.1-8.1-8.1H28.8z"/>
	<path class="st0" d="M223.1,71.5H28.8c-13.4,0-24.3-10.9-24.3-24.3s10.9-24.3,24.3-24.3h194.2c13.4,0,24.3,10.9,24.3,24.3
		S236.5,71.5,223.1,71.5z M28.8,39.1c-4.5,0-8.1,3.6-8.1,8.1s3.6,8.1,8.1,8.1h194.2c4.5,0,8.1-3.6,8.1-8.1s-3.6-8.1-8.1-8.1H28.8z"
		/>
	<path class="st0" d="M223.1,152.4H28.8c-13.4,0-24.3-10.9-24.3-24.3s10.9-24.3,24.3-24.3h194.2c13.4,0,24.3,10.9,24.3,24.3
		S236.5,152.4,223.1,152.4z M28.8,120c-4.5,0-8.1,3.6-8.1,8.1c0,4.5,3.6,8.1,8.1,8.1h194.2c4.5,0,8.1-3.6,8.1-8.1
		c0-4.5-3.6-8.1-8.1-8.1H28.8z"/>
</g>
</svg>
