<?xml version="1.0" encoding="utf-8"?>
<!-- Generator: Adobe Illustrator 23.0.1, SVG Export Plug-In . SVG Version: 6.00 Build 0)  -->
<svg version="1.1" id="Layer_1" xmlns="http://www.w3.org/2000/svg" xmlns:xlink="http://www.w3.org/1999/xlink" x="0px" y="0px"
	 viewBox="0 0 250 250" style="enable-background:new 0 0 250 250;" xml:space="preserve">
<style type="text/css">
	.st0{fill:#FFFFFF;}
</style>
<g>
	<path class="st0" d="M243.4,112.9c1,8.8,1,17.7-0.1,26.5c-0.9,7.9-8,13.8-15.4,13.2l-1.1,0c-5.9,0-11.5,3.7-13.7,9.1
		c-2.4,5.7-0.9,12.5,3.8,16.7c5.9,5.3,6.6,14.3,1.6,20.4c-5.5,6.9-11.9,13.2-18.9,18.7c-6.2,4.8-14.9,4-20.2-1.7
		c-3.9-4.3-11.3-6-16.6-3.8c-5.7,2.3-9.4,8.1-9.1,14.3c0.3,7.8-5.5,14.5-13.3,15.4c-4.2,0.5-8.5,0.7-12.8,0.7c-4.5,0-9-0.3-13.4-0.8
		c-7.9-0.9-13.7-7.8-13.2-15.7c0.4-6.3-3.3-12.1-9.1-14.6c-5.3-2.2-12.8-0.5-16.7,3.8c-5.3,5.9-14.3,6.6-20.4,1.6
		c-6.8-5.5-13-11.8-18.4-18.6c-4.8-6.1-4.1-15,1.6-20.2c4.6-4.2,6.1-10.9,3.8-16.6c-2.3-5.7-7.9-9.3-13.8-9.2
		c-7.5,0-15.1-5.3-15.9-13.2c-1-8.8-1-17.7,0.1-26.5c0.9-7.8,7.4-13.4,15.1-13.2c7,0,12.9-3.6,15.1-9c2.4-5.8,0.9-12.5-3.8-16.7
		C32.7,68.1,32,59.1,36.9,53c5.5-6.9,11.9-13.1,18.9-18.6c6.1-4.8,15-4.1,20.2,1.7c3.9,4.3,11.3,6,16.6,3.8
		c5.7-2.3,9.4-8.1,9.2-14.3c-0.3-7.8,5.5-14.5,13.3-15.3c8.7-1,17.5-0.9,26.2,0.1c7.9,0.9,13.6,7.8,13.2,15.7
		c-0.4,6.3,3.3,12.1,9,14.6c5.4,2.2,12.8,0.5,16.7-3.8c5.3-5.9,14.3-6.6,20.4-1.6c6.8,5.4,13,11.7,18.5,18.6
		c4.8,6.1,4.1,15-1.6,20.2c-4.6,4.2-6.1,10.9-3.8,16.6c2.3,5.6,7.7,9.2,14,9.2C235,99.7,242.5,105.1,243.4,112.9z M197,97.3
		c-4.8-11.8-2.3-25.3,6.3-34.6c-3.6-4.4-7.6-8.4-11.9-12c-9.2,8.4-23.4,11-34.9,6.2c-11.9-5-19.6-16.5-20-29.2
		c-5.6-0.5-11.3-0.5-16.9,0c-0.6,12.6-8.5,23.9-20.3,28.7c-11.4,4.7-25.5,1.9-34.6-6.3c-4.4,3.7-8.5,7.7-12.2,12
		c8.7,9.3,11.2,23,6.2,34.9c-4.8,11.5-16.1,19-29.2,19.9c-0.5,5.7-0.5,11.4,0,17.2c12.5,0.4,23.9,8.3,28.8,20.3
		c4.8,11.8,2.3,25.3-6.3,34.6c3.6,4.3,7.6,8.3,11.9,12c9.2-8.4,23.4-11.1,34.9-6.3c11.9,5,19.7,16.5,20.1,29.2
		c2.9,0.3,5.8,0.4,8.7,0.4c2.7,0,5.5-0.1,8.2-0.3c0.6-12.6,8.5-23.9,20.2-28.7c11.4-4.7,25.5-2,34.6,6.3c4.4-3.6,8.5-7.7,12.2-12
		c-8.7-9.4-11.2-23-6.2-34.9c4.9-11.7,16.4-19.6,29.2-20c0.5-5.7,0.5-11.4,0-17.1C213.1,116.9,201.9,109.1,197,97.3z M127.7,170.6
		c-24.7,0-44.8-20.1-44.8-44.8c0-24.7,20.1-44.8,44.8-44.8c24.7,0,44.8,20.1,44.8,44.8C172.5,150.6,152.4,170.6,127.7,170.6z
		 M127.7,152.7c14.8,0,26.9-12.1,26.9-26.9c0-14.8-12.1-26.9-26.9-26.9c-14.8,0-26.9,12.1-26.9,26.9
		C100.8,140.7,112.9,152.7,127.7,152.7z"/>
</g>
</svg>
