<?xml version="1.0" encoding="utf-8"?>
<svg xmlns="http://www.w3.org/2000/svg" xmlns:xlink="http://www.w3.org/1999/xlink" style="margin: auto; background: none; display: block; shape-rendering: auto;" width="200px" height="200px" viewBox="0 0 100 100" preserveAspectRatio="xMidYMid">
<g transform="rotate(0 50 50)">
  <rect x="48.5" y="28.5" rx="0.87" ry="0.87" width="3" height="3" fill="#c52e2c">
    <animate attributeName="opacity" values="1;0" keyTimes="0;1" dur="0.2577319587628866s" begin="-0.23625429553264604s" repeatCount="indefinite"></animate>
  </rect>
</g><g transform="rotate(30 50 50)">
  <rect x="48.5" y="28.5" rx="0.87" ry="0.87" width="3" height="3" fill="#c52e2c">
    <animate attributeName="opacity" values="1;0" keyTimes="0;1" dur="0.2577319587628866s" begin="-0.21477663230240548s" repeatCount="indefinite"></animate>
  </rect>
</g><g transform="rotate(60 50 50)">
  <rect x="48.5" y="28.5" rx="0.87" ry="0.87" width="3" height="3" fill="#c52e2c">
    <animate attributeName="opacity" values="1;0" keyTimes="0;1" dur="0.2577319587628866s" begin="-0.19329896907216493s" repeatCount="indefinite"></animate>
  </rect>
</g><g transform="rotate(90 50 50)">
  <rect x="48.5" y="28.5" rx="0.87" ry="0.87" width="3" height="3" fill="#c52e2c">
    <animate attributeName="opacity" values="1;0" keyTimes="0;1" dur="0.2577319587628866s" begin="-0.1718213058419244s" repeatCount="indefinite"></animate>
  </rect>
</g><g transform="rotate(120 50 50)">
  <rect x="48.5" y="28.5" rx="0.87" ry="0.87" width="3" height="3" fill="#c52e2c">
    <animate attributeName="opacity" values="1;0" keyTimes="0;1" dur="0.2577319587628866s" begin="-0.15034364261168384s" repeatCount="indefinite"></animate>
  </rect>
</g><g transform="rotate(150 50 50)">
  <rect x="48.5" y="28.5" rx="0.87" ry="0.87" width="3" height="3" fill="#c52e2c">
    <animate attributeName="opacity" values="1;0" keyTimes="0;1" dur="0.2577319587628866s" begin="-0.12886597938144329s" repeatCount="indefinite"></animate>
  </rect>
</g><g transform="rotate(180 50 50)">
  <rect x="48.5" y="28.5" rx="0.87" ry="0.87" width="3" height="3" fill="#c52e2c">
    <animate attributeName="opacity" values="1;0" keyTimes="0;1" dur="0.2577319587628866s" begin="-0.10738831615120274s" repeatCount="indefinite"></animate>
  </rect>
</g><g transform="rotate(210 50 50)">
  <rect x="48.5" y="28.5" rx="0.87" ry="0.87" width="3" height="3" fill="#c52e2c">
    <animate attributeName="opacity" values="1;0" keyTimes="0;1" dur="0.2577319587628866s" begin="-0.0859106529209622s" repeatCount="indefinite"></animate>
  </rect>
</g><g transform="rotate(240 50 50)">
  <rect x="48.5" y="28.5" rx="0.87" ry="0.87" width="3" height="3" fill="#c52e2c">
    <animate attributeName="opacity" values="1;0" keyTimes="0;1" dur="0.2577319587628866s" begin="-0.06443298969072164s" repeatCount="indefinite"></animate>
  </rect>
</g><g transform="rotate(270 50 50)">
  <rect x="48.5" y="28.5" rx="0.87" ry="0.87" width="3" height="3" fill="#c52e2c">
    <animate attributeName="opacity" values="1;0" keyTimes="0;1" dur="0.2577319587628866s" begin="-0.0429553264604811s" repeatCount="indefinite"></animate>
  </rect>
</g><g transform="rotate(300 50 50)">
  <rect x="48.5" y="28.5" rx="0.87" ry="0.87" width="3" height="3" fill="#c52e2c">
    <animate attributeName="opacity" values="1;0" keyTimes="0;1" dur="0.2577319587628866s" begin="-0.02147766323024055s" repeatCount="indefinite"></animate>
  </rect>
</g><g transform="rotate(330 50 50)">
  <rect x="48.5" y="28.5" rx="0.87" ry="0.87" width="3" height="3" fill="#c52e2c">
    <animate attributeName="opacity" values="1;0" keyTimes="0;1" dur="0.2577319587628866s" begin="0s" repeatCount="indefinite"></animate>
  </rect>
</g>
<!-- [ldio] generated by https://loading.io/ --></svg>